<svg xmlns="http://www.w3.org/2000/svg" version="1.1" x="0" y="0" width="1221" height="412.7" viewBox="0 0 1221 412.7" xml:space="preserve"><style type="text/css">
	.st0{fill:none;stroke:rgba(255,255,255,.3);stroke-width:1;stroke-miterlimit:10;}
</style><polyline class="st0" points="1220.5 135.2 1217.2 120.3 1215.2 135 1209.7 131.1 1206.5 121.9 1203 148.9 1200.2 135.2 1198.6 176.2 1194.8 187 1191.2 167.6 1188.4 161.2 1186.8 145.2 1182 144.9 1180.1 138.8 1179.7 134.6 1176.6 161.1 1173 151.7 1171.5 106.2 1167.9 123.1 1166.7 118 1158.5 122.4 1157.6 139.6 1151.7 126.7 1148.9 135.2 1145.3 123.2 1139.4 129.2 1139.9 100.4 1130 87.5 1127.7 98.8 1124.9 85 1121.3 81.8 1108.7 152.5 1104 140.8 1100.8 164.5 1093.7 144.6 1087 146.2 1085.5 116.1 1080.3 146.5 1072.8 130.5 1063.7 164.9 1058.2 150.9 1054.2 163.6 1053.8 180.3 1051.1 173.9 1047.1 184.7 1043.2 169.1 1042 197.6 1034.9 165.4 1032.9 248.2 1026.2 99.7 1025.1 114 1019.1 124 1017.1 140.1 1008.9 107.6 1002.5 57.7 999.8 96.3 990.7 46.1 987.6 69.2 984.4 65.9 981.7 93.2 977.7 84.3 972.5 43.5 969.4 42.4 966.6 0 960.3 89.6 955.9 90.1 953.6 118.9 948.1 124.3 941.8 159.8 933.9 148.2 930.7 178.1 927.6 182.9 925.6 205.8 921.7 184.9 920.5 210.7 913.3 213.5 911 271.9 904.7 189 903.1 224.7 895.6 194.5 893.6 196.6 890.9 215.1 883.3 203.7 883.3 226.5 877.9 219.2 874.7 178.4 869.2 201.9 866 206.3 863 186.1 861.3 163.6 857.3 167.6 854.6 163.2 851.8 115.2 848.7 118.8 847.1 152.5 839.6 112.2 838.4 136.7 834.4 142.7 828.1 219.1 820.6 154 816.7 160 812.4 171.8 809.5 215 800.5 197.9 793.8 272.2 792.7 224.7 789.5 254.5 787.9 231.1 782.4 269.8 782.4 222.7 776.1 318.2 771.7 301.8 765.8 330.7 760.6 263.7 758.3 262.7 755.1 299.3 749.2 275 746.8 299.7 742.5 282.8 738.6 298.8 731.9 217.1 726.7 207.2 725.6 220.2 720.8 211.2 719.3 216.1 712.5 203 709.1 206.6 708.6 226.3 702.7 204.2 700.2 213.4 698.3 199.2 689.9 204.2 689.9 267 688.2 260.9 682.7 262.1 678.8 257.8 675.6 257 672.8 245.8 670.9 250.1 665 231.3 660.6 234.2 660.6 224.5 656.6 176.4 653.1 149 649.9 153.6 647.6 147.7 644.8 124.3 641.7 136.2 637.7 133.3 636.5 144.6 631.8 148.9 629.1 159.3 622.7 139.9 617.2 151.7 613.6 152.4 608.9 145.9 606.1 154.6 603.4 161.2 600.6 208.1 596.2 206.6 593.9 156.3 590.3 126.2 585.3 142.8 579 186.2 575 194.9 570.2 192.4 562.7 197 562.4 202.1 559.2 202.9 553.2 174.6 548.2 228.4 542.7 164.2 542.3 229.9 537.5 220.1 532.8 226.3 531.2 240.5 529.5 169.3 526.1 189.1 523.2 161.5 521.3 136.1 516.5 135.9 514.2 149.6 510.6 117.7 505.6 170.2 501.2 241.3 497.6 207.7 494.1 245 489.7 237.1 481.9 208.2 477.5 248.3 475.6 259.1 470 256.3 466.8 249.7 463.3 269.2 460.5 259.4 459 289.1 455 296.9 451.5 283 448.7 278.5 447.1 267 442.4 266.8 440.4 262.5 440 259.5 436.8 278.6 433.3 272 431.7 239.2 428.2 251.5 427 247.8 418.7 251.2 417.9 263.6 412 254.5 409.3 260.6 405.7 252.1 399.8 256.4 400.1 235.7 390.3 226.7 387.9 234.8 385.2 224.9 381.6 222.7 369 274 364.2 265.7 361.1 282.9 354 268.6 347.3 270 345.7 248.3 340.5 270.4 333.1 258.9 324 283.9 318.5 273.9 314.5 283.2 314.1 295.2 311.4 290.7 307.4 298.5 303.5 287.4 302.3 308 295.2 284.9 293.3 344.6 286.6 237.7 285.3 248.1 279.4 255.4 277.4 267.1 269.2 243.8 262.9 207.9 260.1 235.9 251 199.9 247.8 216.6 244.7 214.3 241.9 234 238 227.8 232.9 198.5 229.7 197.8 227 129.5 220.6 231.9 216.3 232.4 213.9 253.2 208.4 257.3 202.1 282.9 194.1 274.7 191 296.3 187.8 300 185.9 316.4 181.9 301.5 180.7 320.1 173.7 322.3 171.3 356.4 165 304.8 163.4 330.7 155.9 309 154 310.5 151.1 323.9 143.7 315.9 143.7 332.4 138.1 327.2 135 297.8 129.5 314.9 126.2 318.2 123.4 303.6 121.6 287.4 117.6 290.4 114.8 287.3 112.1 252.8 109 255.4 107.4 279.8 99.9 250.9 98.7 268.5 94.7 273 88.4 328.2 81 281.4 77 285.8 72.7 294.5 69.9 325.7 60.9 313.6 54.2 367.3 52.9 333.1 49.8 354.6 48.2 337.8 42.7 365.7 42.7 331.9 36.4 400.8 32 389.1 26.1 410.1 21 361.8 18.6 361.3 15.4 387.7 9.5 370.3 7.2 388.2 2.8 376 0.5 382.9 "/></svg>