<svg xmlns="http://www.w3.org/2000/svg" viewBox="0 0 4397 740"><style type="text/css">    
	.st0{fill:#312F37;}
</style><path class="st0" d="M446 700H20c-11 0-20 9-20 20s9 20 20 20h426c11 0 20-9 20-20S457 700 446 700z"/><path class="st0" d="M654 600H120c-11 0-20 9-20 20s9 20 20 20h534c11 0 20-9 20-20S665 600 654 600z"/><path class="st0" d="M654 500H445c-11 0-20 9-20 20s9 20 20 20h209c11 0 20-9 20-20S665 500 654 500z"/><path class="st0" d="M874 400H585c-11 0-20 9-20 20s9 20 20 20h289c11 0 20-9 20-20S885 400 874 400z"/><path class="st0" d="M655 340h618c11 0 20-9 20-20s-9-20-20-20H655c-11 0-20 9-20 20S644 340 655 340z"/><path class="st0" d="M1362 400h-195c-11 0-20 9-20 20s9 20 20 20h195c11 0 20-9 20-20S1373 400 1362 400z"/><path class="st0" d="M1330 240h209c11 0 20-9 20-20s-9-20-20-20h-209c-11 0-20 9-20 20S1319 240 1330 240z"/><path class="st0" d="M1840 420c0-11-9-20-20-20h-289c-11 0-20 9-20 20s9 20 20 20h289C1831 440 1840 431 1840 420z"/><path class="st0" d="M1791 540h209c11 0 20-9 20-20s-9-20-20-20h-209c-11 0-20 9-20 20S1780 540 1791 540z"/><path class="st0" d="M2205 620c0-11-9-20-20-20h-394c-11 0-20 9-20 20s9 20 20 20h394C2196 640 2205 631 2205 620z"/><path class="st0" d="M2285 700h-286c-11 0-20 9-20 20s9 20 20 20h286c11 0 20-9 20-20S2296 700 2285 700z"/><path class="st0" d="M2538 500h-426c-11 0-20 9-20 20s9 20 20 20h426c11 0 20-9 20-20S2549 500 2538 500z"/><path class="st0" d="M2746 400h-534c-11 0-20 9-20 20s9 20 20 20h534c11 0 20-9 20-20S2757 400 2746 400z"/><path class="st0" d="M2746 300h-209c-11 0-20 9-20 20s9 20 20 20h209c11 0 20-9 20-20S2757 300 2746 300z"/><path class="st0" d="M2966 200h-289c-11 0-20 9-20 20s9 20 20 20h289c11 0 20-9 20-20S2977 200 2966 200z"/><path class="st0" d="M2747 140h618c11 0 20-9 20-20s-9-20-20-20h-618c-11 0-20 9-20 20S2736 140 2747 140z"/><path class="st0" d="M3454 200h-195c-11 0-20 9-20 20s9 20 20 20h195c11 0 20-9 20-20S3465 200 3454 200z"/><path class="st0" d="M3422 40h209c11 0 20-9 20-20s-9-20-20-20h-209c-11 0-20 9-20 20S3411 40 3422 40z"/><path class="st0" d="M3932 220c0-11-9-20-20-20h-289c-11 0-20 9-20 20s9 20 20 20h289C3923 240 3932 231 3932 220z"/><path class="st0" d="M3883 340h209c11 0 20-9 20-20s-9-20-20-20h-209c-11 0-20 9-20 20S3872 340 3883 340z"/><path class="st0" d="M4297 420c0-11-9-20-20-20h-394c-11 0-20 9-20 20s9 20 20 20h394C4288 440 4297 431 4297 420z"/><path class="st0" d="M4377 500h-286c-11 0-20 9-20 20s9 20 20 20h286c11 0 20-9 20-20S4388 500 4377 500z"/></svg>