<svg xmlns="http://www.w3.org/2000/svg" viewBox="0 0 28 28"><path d="M14 1c7.2 0 13 5.8 13 13s-5.8 13-13 13-13-5.8-13-13 5.8-13 13-13m0-1c-7.7 0-14 6.3-14 14s6.3 14 14 14 14-6.3 14-14-6.3-14-14-14zM14 6.9c1.4 0 2.6 1.2 2.6 2.6s-1.2 2.5-2.6 2.5-2.6-1.2-2.6-2.6 1.2-2.5 2.6-2.5m0-1c-2 0-3.6 1.6-3.6 3.6s1.6 3.5 3.6 3.5 3.6-1.6 3.6-3.6-1.6-3.5-3.6-3.5zM9.9 13.9c1.4 0 2.6 1.2 2.6 2.6s-1.2 2.6-2.6 2.6-2.6-1.2-2.6-2.6c0.1-1.4 1.2-2.6 2.6-2.6m0-1c-2 0-3.6 1.6-3.6 3.6s1.6 3.6 3.6 3.6 3.6-1.6 3.6-3.6-1.6-3.6-3.6-3.6zM18.1 13.9c1.4 0 2.6 1.2 2.6 2.6s-1.2 2.6-2.6 2.6-2.6-1.2-2.6-2.6 1.1-2.6 2.6-2.6m0-1c-2 0-3.6 1.6-3.6 3.6s1.6 3.6 3.6 3.6 3.6-1.6 3.6-3.6c-0.1-2-1.7-3.6-3.6-3.6z" fill="#fff"/></svg>